<svg width="20" height="21" viewBox="0 0 20 21" fill="none" xmlns="http://www.w3.org/2000/svg">
<path fill-rule="evenodd" clip-rule="evenodd" d="M19.6041 0.200926C19.3362 -0.0669751 18.9018 -0.0669755 18.6339 0.200926L9.79912 9.03571L1.36621 0.602805C1.09831 0.334904 0.663956 0.334904 0.396055 0.602805C0.128154 0.870706 0.128154 1.30506 0.396055 1.57296L8.82896 10.0059L0.200926 18.6339C-0.0669753 18.9018 -0.0669753 19.3362 0.200926 19.6041C0.468827 19.872 0.903181 19.872 1.17108 19.6041L9.79912 10.976L18.829 20.0059C19.0969 20.2738 19.5313 20.2738 19.7992 20.0059C20.0671 19.738 20.0671 19.3037 19.7992 19.0358L10.7693 10.0059L19.6041 1.17108C19.872 0.903181 19.872 0.468827 19.6041 0.200926Z" fill="white"/>
</svg>
