<svg viewBox="0 0 100 54" fill="none" xmlns="http://www.w3.org/2000/svg">
<path d="M6.73196 28.3584C6.73196 28.0291 6.67218 27.7188 6.55261 27.4266C6.43207 27.1353 6.26644 26.8811 6.05475 26.6649C5.84306 26.4477 5.59413 26.2765 5.30795 26.1494C5.02276 26.0223 4.71404 25.9583 4.3818 25.9583C4.05937 25.9583 3.75555 26.0223 3.46938 26.1494C3.18418 26.2765 2.93525 26.4477 2.72356 26.6649C2.51089 26.8811 2.3433 27.1353 2.21883 27.4266C2.09437 27.7188 2.03164 28.0291 2.03164 28.3584C2.03164 28.6877 2.09437 29.001 2.21883 29.2973C2.3433 29.5935 2.51089 29.8508 2.72356 30.067C2.93525 30.2832 3.18418 30.4553 3.46938 30.5824C3.75555 30.7096 4.05937 30.7726 4.3818 30.7726C4.71404 30.7726 5.02276 30.7096 5.30795 30.5824C5.59413 30.4553 5.84306 30.2832 6.05475 30.067C6.26644 29.8508 6.43207 29.5935 6.55261 29.2973C6.67218 29.001 6.73196 28.6877 6.73196 28.3584ZM6.73196 31.2531H6.70452C6.56634 31.4412 6.40659 31.6224 6.22724 31.7965C6.04789 31.9707 5.84698 32.1238 5.62647 32.255C5.40498 32.3871 5.16094 32.4932 4.89339 32.5722C4.62584 32.6523 4.33574 32.6924 4.02213 32.6924C3.46938 32.6924 2.94897 32.5843 2.46091 32.3681C1.97186 32.1519 1.54554 31.8476 1.18194 31.4572C0.817362 31.0669 0.530207 30.6085 0.317536 30.081C0.105845 29.5535 0 28.98 0 28.3584C0 27.7379 0.105845 27.1633 0.317536 26.6359C0.530207 26.1094 0.817362 25.653 1.18194 25.2666C1.54554 24.8813 1.97186 24.58 2.46091 24.3638C2.94897 24.1466 3.46938 24.0385 4.02213 24.0385C4.33574 24.0385 4.62584 24.0765 4.89339 24.1516C5.16094 24.2267 5.40498 24.3308 5.62647 24.4619C5.84698 24.594 6.04789 24.7472 6.22724 24.9213C6.40659 25.0955 6.56634 25.2766 6.70452 25.4648H6.73196V24.2787H8.65384V32.4531H6.73196V31.2531Z" fill="white"/>
<path d="M11.5383 24.2856H13.1645V25.4467H13.1901C13.2853 25.2635 13.3969 25.0864 13.5259 24.9176C13.6549 24.7477 13.8032 24.5975 13.9716 24.4667C14.139 24.336 14.3266 24.232 14.5325 24.1548C14.7393 24.0776 14.9718 24.0385 15.2298 24.0385H15.3845V26.2022C15.3158 26.1827 15.2472 26.1662 15.1786 26.1508C15.109 26.1364 15.0358 26.1291 14.959 26.1291C14.7348 26.1291 14.5289 26.1755 14.3394 26.2671C14.15 26.3597 13.9798 26.4822 13.8297 26.6376C13.6787 26.7921 13.5579 26.9763 13.4683 27.1894C13.3777 27.4025 13.3237 27.63 13.3063 27.8719V32.6924H11.5383V24.2856Z" fill="white"/>
<path d="M25.9616 28.3584C25.9616 28.5186 25.9518 28.6717 25.9311 28.8178C25.9105 28.963 25.88 29.1161 25.8387 29.2763H18.7383C18.933 29.7277 19.244 30.097 19.6735 30.3843C20.103 30.6715 20.5988 30.8147 21.162 30.8147C21.56 30.8147 21.9286 30.7426 22.2657 30.5965C22.6028 30.4503 22.8996 30.2501 23.1551 29.9959H25.5168C25.3635 30.4103 25.1417 30.7846 24.8503 31.1189C24.5589 31.4532 24.224 31.7355 23.8456 31.9657C23.4672 32.1959 23.0475 32.3751 22.5875 32.5022C22.1276 32.6293 21.6524 32.6924 21.162 32.6924C20.5379 32.6924 19.9344 32.5803 19.3516 32.354C18.7688 32.1278 18.2556 31.8196 17.8108 31.4292C17.3661 31.0389 17.0106 30.5794 16.7442 30.053C16.4788 29.5255 16.3462 28.961 16.3462 28.3584C16.3462 27.7379 16.4734 27.1633 16.7289 26.6359C16.9845 26.1094 17.3324 25.653 17.7717 25.2666C18.2121 24.8813 18.7253 24.58 19.3136 24.3638C19.9018 24.1466 20.5281 24.0385 21.1925 24.0385C21.8471 24.0385 22.4625 24.1516 23.0399 24.3778C23.6183 24.603 24.124 24.9093 24.5589 25.2947C24.9927 25.681 25.3353 26.1374 25.5864 26.6649C25.8365 27.1914 25.9616 27.7559 25.9616 28.3584ZM23.6303 27.5397C23.4465 27.0412 23.1345 26.6459 22.6952 26.3536C22.2559 26.0623 21.7546 25.9162 21.1925 25.9162C20.6401 25.9162 20.1443 26.0623 19.705 26.3536C19.2646 26.6459 18.9526 27.0412 18.7688 27.5397H23.6303Z" fill="white"/>
<path d="M26.9231 32.6924V24.2856H29.0091V25.4909H29.0413C29.2901 25.0843 29.6594 24.7405 30.1502 24.4595C30.6411 24.1795 31.242 24.0385 31.953 24.0385C32.492 24.0385 32.9828 24.126 33.4255 24.3C33.867 24.4739 34.2478 24.7189 34.5654 25.0329C34.8843 25.3479 35.132 25.7256 35.3097 26.1662C35.4875 26.6057 35.5769 27.0875 35.5769 27.6104V32.6924H33.312V27.8719C33.312 27.6104 33.2581 27.3685 33.1503 27.1462C33.0425 26.9228 32.8945 26.7272 32.7053 26.5574C32.5172 26.3885 32.2982 26.2547 32.0505 26.158C31.8028 26.0612 31.5379 26.0128 31.258 26.0128C30.9668 26.0128 30.6973 26.0612 30.4495 26.158C30.2007 26.2547 29.9828 26.3885 29.7936 26.5574C29.6055 26.7272 29.4564 26.9228 29.3486 27.1462C29.2408 27.3685 29.1869 27.6104 29.1869 27.8719V32.6924H26.9231Z" fill="white"/>
<path d="M44.232 28.3584C44.232 28.0291 44.1722 27.7188 44.0526 27.4266C43.933 27.1353 43.7664 26.8811 43.5547 26.6649C43.3431 26.4477 43.0941 26.2765 42.808 26.1494C42.5228 26.0223 42.214 25.9583 41.8818 25.9583C41.5594 25.9583 41.2556 26.0223 40.9704 26.1494C40.6842 26.2765 40.4353 26.4477 40.2236 26.6649C40.0119 26.8811 39.8433 27.1353 39.7188 27.4266C39.5944 27.7188 39.5326 28.0291 39.5326 28.3584C39.5326 28.6877 39.5944 29.001 39.7188 29.2973C39.8433 29.5935 40.0119 29.8508 40.2236 30.067C40.4353 30.2832 40.6842 30.4553 40.9704 30.5824C41.2556 30.7096 41.5594 30.7726 41.8818 30.7726C42.214 30.7726 42.5228 30.7096 42.808 30.5824C43.0941 30.4553 43.3431 30.2832 43.5547 30.067C43.7664 29.8508 43.933 29.5935 44.0526 29.2973C44.1722 29.001 44.232 28.6877 44.232 28.3584ZM44.232 31.2531H44.2045C44.0663 31.4412 43.9076 31.6224 43.7272 31.7965C43.5479 31.9707 43.347 32.1238 43.1265 32.255C42.905 32.3871 42.6609 32.4932 42.3934 32.5722C42.1268 32.6523 41.8357 32.6924 41.5231 32.6924C40.9704 32.6924 40.449 32.5843 39.9609 32.3681C39.4728 32.1519 39.0465 31.8476 38.6819 31.4572C38.3183 31.0669 38.0302 30.6085 37.8185 30.081C37.6058 29.5535 37.5 28.98 37.5 28.3584C37.5 27.7379 37.6058 27.1633 37.8185 26.6359C38.0302 26.1094 38.3183 25.653 38.6819 25.2666C39.0465 24.8813 39.4728 24.58 39.9609 24.3638C40.449 24.1466 40.9704 24.0385 41.5231 24.0385C41.8357 24.0385 42.1268 24.0765 42.3934 24.1516C42.6609 24.2267 42.905 24.3308 43.1265 24.4619C43.347 24.594 43.5479 24.7472 43.7272 24.9213C43.9076 25.0955 44.0663 25.2766 44.2045 25.4648H44.232V24.2787H46.1538V32.4531H44.232V31.2531Z" fill="white"/>
<path d="M51.9231 32.6923H51.0327C50.7192 32.6923 50.4243 32.6247 50.1498 32.4906C49.8752 32.3564 49.635 32.1758 49.431 31.9467C49.226 31.7185 49.0619 31.4503 48.9404 31.143C48.8179 30.8346 48.7567 30.5019 48.7567 30.1449V25.9142H48.0769V24.067H48.7567V22.1154H50.5884V24.067H51.7005V25.9142H50.5884V30.1449C50.5884 30.2939 50.632 30.4174 50.7192 30.5167C50.8064 30.616 50.9112 30.6656 51.0327 30.6656H51.9231V32.6923Z" fill="white"/>
<path d="M55.6048 24.027V32.6923H53.0489V24.027H55.6048ZM52.8845 22.3358C52.8845 22.0069 53.0256 21.7278 53.3051 21.4976C53.5846 21.2684 53.925 21.1538 54.3275 21.1538C54.7287 21.1538 55.069 21.2684 55.3498 21.4976C55.6294 21.7278 55.7691 22.0069 55.7691 22.3358C55.7691 22.6647 55.6294 22.9448 55.3498 23.174C55.069 23.4031 54.7287 23.5177 54.3275 23.5177C53.925 23.5177 53.5846 23.4031 53.3051 23.174C53.0256 22.9448 52.8845 22.6647 52.8845 22.3358Z" fill="white"/>
<path d="M64.0976 27.3931C63.9018 26.9514 63.5863 26.5967 63.152 26.3289C62.7176 26.0611 62.2163 25.9272 61.6478 25.9272C61.285 25.9272 60.9441 25.9931 60.6241 26.125C60.3031 26.2559 60.0238 26.4328 59.7863 26.6537C59.5488 26.8745 59.3597 27.1323 59.22 27.4281C59.0804 27.7249 59.0111 28.0367 59.0111 28.3654C59.0111 28.6942 59.0804 29.007 59.22 29.3028C59.3597 29.5986 59.5488 29.8574 59.7863 30.0782C60.0238 30.2991 60.3031 30.4749 60.6241 30.6068C60.9441 30.7387 61.285 30.8037 61.6478 30.8037C62.2163 30.8037 62.7176 30.6698 63.152 30.402C63.5863 30.1342 63.9018 29.7794 64.0976 29.3377H66.3461C66.2328 29.8454 66.0415 30.3061 65.7732 30.7198C65.5039 31.1325 65.1652 31.4852 64.7573 31.777C64.3482 32.0678 63.8809 32.2936 63.3532 32.4535C62.8265 32.6124 62.2569 32.6924 61.6478 32.6924C60.965 32.6924 60.324 32.5844 59.7247 32.3686C59.1244 32.1527 58.6021 31.849 58.1579 31.4592C57.7137 31.0695 57.364 30.6118 57.1112 30.0852C56.8583 29.5586 56.7307 28.986 56.7307 28.3654C56.7307 27.7459 56.8583 27.1723 57.1112 26.6457C57.364 26.12 57.7137 25.6614 58.1579 25.2716C58.6021 24.8819 59.1244 24.5791 59.7247 24.3623C60.324 24.1464 60.965 24.0385 61.6478 24.0385C62.2569 24.0385 62.8265 24.1185 63.3532 24.2783C63.8809 24.4382 64.346 24.6631 64.7496 24.9549C65.152 25.2457 65.4907 25.5984 65.7644 26.0121C66.0393 26.4248 66.2328 26.8855 66.3461 27.3931H64.0976Z" fill="white"/>
<path d="M75.9615 23.7846L71.9148 27.9227L75.9615 32.6923H73.1905L70.4361 29.43L69.4242 30.4771V32.6923H67.3076V21.1538H69.4242V27.4613L73.0195 23.7846H75.9615Z" fill="white"/>
<path d="M85.5768 28.3584C85.5768 28.5186 85.567 28.6717 85.5464 28.8178C85.5257 28.963 85.4953 29.1161 85.4539 29.2763H78.3536C78.5482 29.7277 78.8592 30.097 79.2887 30.3843C79.7182 30.6715 80.214 30.8147 80.7762 30.8147C81.1752 30.8147 81.5438 30.7426 81.8809 30.5965C82.218 30.4503 82.5148 30.2501 82.7704 29.9959H85.1321C84.9788 30.4103 84.757 30.7846 84.4655 31.1189C84.1741 31.4532 83.8392 31.7355 83.4608 31.9657C83.0824 32.1959 82.6627 32.3751 82.2028 32.5022C81.7428 32.6293 81.2677 32.6924 80.7762 32.6924C80.1531 32.6924 79.5497 32.5803 78.9668 32.354C78.384 32.1278 77.8708 31.8196 77.4261 31.4292C76.9803 31.0389 76.6258 30.5794 76.3594 30.053C76.0941 29.5255 75.9614 28.961 75.9614 28.3584C75.9614 27.7379 76.0886 27.1633 76.3442 26.6359C76.5997 26.1094 76.9476 25.653 77.3869 25.2666C77.8273 24.8813 78.3405 24.58 78.9288 24.3638C79.516 24.1466 80.1423 24.0385 80.8077 24.0385C81.4612 24.0385 82.0777 24.1516 82.6551 24.3778C83.2336 24.603 83.7392 24.9093 84.1741 25.2947C84.608 25.681 84.9505 26.1374 85.2017 26.6649C85.4518 27.1914 85.5768 27.7559 85.5768 28.3584ZM83.2455 27.5397C83.0618 27.0412 82.7497 26.6459 82.3104 26.3536C81.8711 26.0623 81.3699 25.9162 80.8077 25.9162C80.2553 25.9162 79.7595 26.0623 79.3202 26.3536C78.8799 26.6459 78.5678 27.0412 78.384 27.5397H83.2455Z" fill="white"/>
<path d="M91.346 32.6923H90.2342C89.8412 32.6923 89.4737 32.6247 89.1306 32.4906C88.7862 32.3564 88.4871 32.1758 88.2309 31.9467C87.9747 31.7185 87.7707 31.4503 87.6177 31.143C87.4646 30.8346 87.3881 30.5019 87.3881 30.1449V25.9142H86.5383V24.067H87.3881V22.1154H89.6778V24.067H91.0678V25.9142H89.6778V30.1449C89.6778 30.2939 89.7323 30.4174 89.8412 30.5167C89.9502 30.616 90.0812 30.6656 90.2342 30.6656H91.346V32.6923Z" fill="white"/>
<path d="M97.667 26.806C97.667 26.6929 97.6318 26.5708 97.5614 26.4387C97.491 26.3066 97.3928 26.1865 97.2679 26.0784C97.142 25.9703 96.9872 25.8812 96.8016 25.8101C96.6159 25.7401 96.4078 25.705 96.1762 25.705C95.9862 25.705 95.8027 25.728 95.6266 25.7751C95.4516 25.8221 95.2989 25.8862 95.1677 25.9663C95.0375 26.0453 94.9318 26.1424 94.8518 26.2555C94.7718 26.3676 94.7312 26.4907 94.7312 26.6219C94.7312 26.81 94.7995 26.9401 94.935 27.0102C95.0706 27.0813 95.2488 27.1493 95.4686 27.2154L97.3351 27.6668C97.6969 27.7519 98.0406 27.855 98.3671 27.9771C98.6926 28.1002 98.9765 28.2553 99.2166 28.4435C99.4578 28.6317 99.6488 28.8599 99.7886 29.1281C99.9295 29.3964 99.9999 29.7237 99.9999 30.109C99.9999 30.5324 99.8975 30.9047 99.6915 31.224C99.4855 31.5443 99.207 31.8156 98.8559 32.0358C98.5048 32.257 98.0928 32.4221 97.6212 32.5302C97.1495 32.6383 96.6436 32.6924 96.1015 32.6924C95.5689 32.6924 95.0727 32.6243 94.6106 32.4882C94.1496 32.351 93.7483 32.1609 93.4068 31.9167C93.0653 31.6714 92.7975 31.3802 92.6011 31.0409C92.4058 30.7026 92.3076 30.3302 92.3076 29.9258H94.3705C94.3705 30.057 94.4174 30.1871 94.5135 30.3142C94.6085 30.4413 94.7344 30.5564 94.8891 30.6595C95.045 30.7636 95.2285 30.8477 95.4388 30.9137C95.6501 30.9798 95.871 31.0128 96.1015 31.0128C96.5732 31.0128 96.9744 30.9348 97.3053 30.7796C97.6361 30.6245 97.8026 30.4013 97.8026 30.109C97.8026 29.9208 97.7247 29.7847 97.5689 29.6996C97.4131 29.6156 97.1847 29.5395 96.8837 29.4734L95.0321 29.036C94.6917 28.952 94.3673 28.8429 94.0621 28.7117C93.7558 28.5796 93.4869 28.4155 93.2564 28.2173C93.0258 28.0201 92.8423 27.7889 92.7067 27.5257C92.5712 27.2624 92.504 26.9612 92.504 26.6219C92.504 26.1985 92.6011 25.8271 92.7975 25.5068C92.9928 25.1866 93.2563 24.9183 93.5872 24.7021C93.9191 24.4859 94.3075 24.3208 94.7536 24.2077C95.2008 24.0956 95.6746 24.0385 96.1762 24.0385C96.6778 24.0385 97.1452 24.1116 97.5763 24.2577C98.0075 24.4038 98.3821 24.601 98.6979 24.8503C99.0138 25.0995 99.2625 25.3917 99.4428 25.726C99.6232 26.0603 99.7139 26.4197 99.7139 26.806H97.667Z" fill="white"/>
<path fill-rule="evenodd" clip-rule="evenodd" d="M21.1541 18.2692H22.6041L22.602 1.68931L72.5918 10.137L72.5886 18.2692H74.0387L74.0365 9.03842C73.4055 8.70203 50.4906 4.96388 47.6936 4.48242L27.9389 1.13322C25.7848 0.760035 23.3243 0.227064 21.1627 0L21.1541 18.2692Z" fill="white"/>
<path fill-rule="evenodd" clip-rule="evenodd" d="M21.1541 35.5599L21.1551 53.8461L74.0387 44.4204L74.0322 34.6839L72.5834 34.6154L72.5812 43.1507L22.6061 52.0997L22.6018 34.6209L21.1562 34.6242L21.1541 35.5599Z" fill="white"/>
</svg>
