<svg xmlns="http://www.w3.org/2000/svg" xmlns:xlink="http://www.w3.org/1999/xlink" xmlns:xodm="http://www.corel.com/coreldraw/odm/2003" xml:space="preserve" version="1.1" style="shape-rendering:geometricPrecision; text-rendering:geometricPrecision; image-rendering:optimizeQuality; fill-rule:evenodd; clip-rule:evenodd" viewBox="73.98 293.2 932.04 493.6">
 <defs>
  <style type="text/css">
   <![CDATA[
    .fil0 {fill:#404893}
    .fil2 {fill:#404893}
    .fil1 {fill:#404893;fill-rule:nonzero}
   ]]>
  </style>
 </defs>
 <g id="Слой_x0020_1">
  <metadata id="CorelCorpID_0Corel-Layer"/>
<!--  <rect class="fil0" width="1080" height="1080"/>-->
  <path class="fil1" d="M142.67 552.07c0,-3.29 -0.61,-6.39 -1.83,-9.31 -1.23,-2.91 -2.92,-5.45 -5.08,-7.61 -2.16,-2.17 -4.7,-3.88 -7.62,-5.15 -2.91,-1.27 -6.06,-1.91 -9.45,-1.91 -3.29,0 -6.39,0.64 -9.31,1.91 -2.91,1.27 -5.45,2.98 -7.61,5.15 -2.17,2.16 -3.88,4.7 -5.15,7.61 -1.27,2.92 -1.91,6.02 -1.91,9.31 0,3.29 0.64,6.42 1.91,9.38 1.27,2.96 2.98,5.53 5.15,7.69 2.16,2.16 4.7,3.88 7.61,5.15 2.92,1.27 6.02,1.9 9.31,1.9 3.39,0 6.54,-0.63 9.45,-1.9 2.92,-1.27 5.46,-2.99 7.62,-5.15 2.16,-2.16 3.85,-4.73 5.08,-7.69 1.22,-2.96 1.83,-6.09 1.83,-9.38zm0 28.92l-0.28 0c-1.41,1.88 -3.04,3.69 -4.87,5.43 -1.83,1.74 -3.88,3.27 -6.13,4.58 -2.26,1.32 -4.75,2.38 -7.48,3.17 -2.73,0.8 -5.69,1.2 -8.89,1.2 -5.64,0 -10.95,-1.08 -15.93,-3.24 -4.99,-2.16 -9.34,-5.2 -13.05,-9.1 -3.72,-3.9 -6.65,-8.48 -8.82,-13.75 -2.16,-5.27 -3.24,-11 -3.24,-17.21 0,-6.2 1.08,-11.94 3.24,-17.21 2.17,-5.26 5.1,-9.82 8.82,-13.68 3.71,-3.85 8.06,-6.86 13.05,-9.02 4.98,-2.17 10.29,-3.25 15.93,-3.25 3.2,0 6.16,0.38 8.89,1.13 2.73,0.75 5.22,1.79 7.48,3.1 2.25,1.32 4.3,2.85 6.13,4.59 1.83,1.74 3.46,3.55 4.87,5.43l0.28 0 0 -11.85 19.61 0 0 81.67 -19.61 0 0 -11.99z"/>
  <path id="1" class="fil1" d="M179.2 511.31l17.77 0 0 11.28 0.28 0c1.04,-1.78 2.26,-3.5 3.67,-5.14 1.41,-1.65 3.03,-3.11 4.87,-4.38 1.83,-1.27 3.88,-2.28 6.13,-3.03 2.26,-0.75 4.8,-1.13 7.62,-1.13l1.69 0 0 21.02c-0.75,-0.19 -1.5,-0.35 -2.25,-0.5 -0.76,-0.14 -1.56,-0.21 -2.4,-0.21 -2.45,0 -4.7,0.45 -6.77,1.34 -2.07,0.9 -3.93,2.09 -5.57,3.6 -1.65,1.5 -2.97,3.29 -3.95,5.36 -0.99,2.07 -1.58,4.28 -1.77,6.63l0 46.83 -19.32 0 0 -81.67z"/>
  <path id="2" class="fil1" d="M314.18 552.07c0,1.6 -0.09,3.13 -0.28,4.59 -0.19,1.45 -0.47,2.98 -0.85,4.58l-65.3 0c1.79,4.51 4.65,8.2 8.6,11.07 3.95,2.87 8.51,4.3 13.69,4.3 3.66,0 7.05,-0.72 10.15,-2.18 3.1,-1.46 5.83,-3.46 8.18,-6l21.72 0c-1.41,4.14 -3.45,7.88 -6.13,11.22 -2.68,3.34 -5.76,6.16 -9.24,8.46 -3.48,2.3 -7.34,4.09 -11.57,5.36 -4.23,1.27 -8.6,1.9 -13.11,1.9 -5.74,0 -11.29,-1.12 -16.65,-3.38 -5.36,-2.26 -10.08,-5.34 -14.17,-9.24 -4.09,-3.9 -7.36,-8.49 -9.81,-13.75 -2.44,-5.27 -3.66,-10.91 -3.66,-16.93 0,-6.2 1.17,-11.94 3.52,-17.21 2.35,-5.26 5.55,-9.82 9.59,-13.68 4.05,-3.85 8.77,-6.86 14.18,-9.02 5.41,-2.17 11.17,-3.25 17.28,-3.25 6.02,0 11.68,1.13 16.99,3.39 5.32,2.25 9.97,5.31 13.97,9.16 3.99,3.86 7.14,8.42 9.45,13.69 2.3,5.26 3.45,10.9 3.45,16.92zm-21.44 -8.18c-1.69,-4.98 -4.56,-8.93 -8.6,-11.85 -4.04,-2.91 -8.65,-4.37 -13.82,-4.37 -5.08,0 -9.64,1.46 -13.68,4.37 -4.05,2.92 -6.92,6.87 -8.61,11.85l44.71 0z"/>
  <path id="3" class="fil1" d="M328.29 592.98l0 -81.67 18.19 0 0 11.71 0.28 0c2.17,-3.95 5.39,-7.29 9.67,-10.02 4.28,-2.72 9.52,-4.09 15.72,-4.09 4.7,0 8.98,0.85 12.84,2.54 3.85,1.69 7.17,4.07 9.94,7.12 2.78,3.06 4.94,6.73 6.49,11.01 1.55,4.27 2.33,8.95 2.33,14.03l0 49.37 -19.75 0 0 -46.83c0,-2.54 -0.47,-4.89 -1.41,-7.05 -0.94,-2.17 -2.23,-4.07 -3.88,-5.72 -1.64,-1.64 -3.55,-2.94 -5.71,-3.88 -2.16,-0.94 -4.47,-1.41 -6.91,-1.41 -2.54,0 -4.89,0.47 -7.05,1.41 -2.17,0.94 -4.07,2.24 -5.72,3.88 -1.64,1.65 -2.94,3.55 -3.88,5.72 -0.94,2.16 -1.41,4.51 -1.41,7.05l0 46.83 -19.74 0z"/>
  <path id="4" class="fil1" d="M486.54 552.07c0,-3.29 -0.61,-6.39 -1.83,-9.31 -1.22,-2.91 -2.92,-5.45 -5.08,-7.61 -2.16,-2.17 -4.7,-3.88 -7.62,-5.15 -2.91,-1.27 -6.06,-1.91 -9.45,-1.91 -3.29,0 -6.39,0.64 -9.3,1.91 -2.92,1.27 -5.46,2.98 -7.62,5.15 -2.16,2.16 -3.88,4.7 -5.15,7.61 -1.27,2.92 -1.9,6.02 -1.9,9.31 0,3.29 0.63,6.42 1.9,9.38 1.27,2.96 2.99,5.53 5.15,7.69 2.16,2.16 4.7,3.88 7.62,5.15 2.91,1.27 6.01,1.9 9.3,1.9 3.39,0 6.54,-0.63 9.45,-1.9 2.92,-1.27 5.46,-2.99 7.62,-5.15 2.16,-2.16 3.86,-4.73 5.08,-7.69 1.22,-2.96 1.83,-6.09 1.83,-9.38zm0 28.92l-0.28 0c-1.41,1.88 -3.03,3.69 -4.87,5.43 -1.83,1.74 -3.88,3.27 -6.13,4.58 -2.26,1.32 -4.75,2.38 -7.48,3.17 -2.72,0.8 -5.69,1.2 -8.88,1.2 -5.64,0 -10.96,-1.08 -15.94,-3.24 -4.98,-2.16 -9.33,-5.2 -13.05,-9.1 -3.71,-3.9 -6.65,-8.48 -8.81,-13.75 -2.17,-5.27 -3.25,-11 -3.25,-17.21 0,-6.2 1.08,-11.94 3.25,-17.21 2.16,-5.26 5.1,-9.82 8.81,-13.68 3.72,-3.85 8.07,-6.86 13.05,-9.02 4.98,-2.17 10.3,-3.25 15.94,-3.25 3.19,0 6.16,0.38 8.88,1.13 2.73,0.75 5.22,1.79 7.48,3.1 2.25,1.32 4.3,2.85 6.13,4.59 1.84,1.74 3.46,3.55 4.87,5.43l0.28 0 0 -11.85 19.61 0 0 81.67 -19.61 0 0 -11.99z"/>
  <path id="5" class="fil1" d="M559.61 592.98l-9.6 0c-3.38,0 -6.56,-0.64 -9.52,-1.91 -2.96,-1.27 -5.55,-2.98 -7.75,-5.15 -2.21,-2.16 -3.98,-4.7 -5.29,-7.61 -1.32,-2.92 -1.98,-6.07 -1.98,-9.45l0 -40.06 -7.33 0 0 -17.49 7.33 0 0 -18.48 19.75 0 0 18.48 11.99 0 0 17.49 -11.99 0 0 40.06c0,1.41 0.47,2.58 1.41,3.52 0.94,0.94 2.07,1.41 3.38,1.41l9.6 0 0 19.19z"/>
  <path id="6" class="fil1" d="M591.34 511.31l0 81.67 -19.75 0 0 -81.67 19.75 0zm-21.02 -15.94c0,-3.1 1.09,-5.73 3.25,-7.9 2.16,-2.16 4.79,-3.24 7.9,-3.24 3.1,0 5.73,1.08 7.9,3.24 2.16,2.17 3.24,4.8 3.24,7.9 0,3.1 -1.08,5.74 -3.24,7.9 -2.17,2.16 -4.8,3.24 -7.9,3.24 -3.11,0 -5.74,-1.08 -7.9,-3.24 -2.16,-2.16 -3.25,-4.8 -3.25,-7.9z"/>
  <path id="7" class="fil1" d="M672.44 542.34c-1.78,-4.42 -4.65,-7.97 -8.6,-10.65 -3.95,-2.68 -8.51,-4.02 -13.68,-4.02 -3.3,0 -6.4,0.66 -9.31,1.98 -2.92,1.31 -5.46,3.08 -7.62,5.29 -2.16,2.21 -3.88,4.79 -5.15,7.75 -1.27,2.97 -1.9,6.09 -1.9,9.38 0,3.29 0.63,6.42 1.9,9.38 1.27,2.96 2.99,5.55 5.15,7.76 2.16,2.21 4.7,3.97 7.62,5.29 2.91,1.32 6.01,1.97 9.31,1.97 5.17,0 9.73,-1.34 13.68,-4.02 3.95,-2.68 6.82,-6.23 8.6,-10.65l20.45 0c-1.03,5.08 -2.77,9.69 -5.21,13.83 -2.45,4.13 -5.53,7.66 -9.24,10.58 -3.72,2.91 -7.97,5.17 -12.77,6.77 -4.79,1.59 -9.97,2.39 -15.51,2.39 -6.21,0 -12.04,-1.08 -17.49,-3.24 -5.46,-2.16 -10.21,-5.2 -14.25,-9.1 -4.04,-3.9 -7.22,-8.48 -9.52,-13.75 -2.3,-5.27 -3.46,-11 -3.46,-17.21 0,-6.2 1.16,-11.94 3.46,-17.21 2.3,-5.26 5.48,-9.85 9.52,-13.75 4.04,-3.9 8.79,-6.93 14.25,-9.1 5.45,-2.16 11.28,-3.24 17.49,-3.24 5.54,0 10.72,0.8 15.51,2.4 4.8,1.6 9.03,3.85 12.7,6.77 3.66,2.91 6.74,6.44 9.23,10.58 2.5,4.13 4.26,8.74 5.29,13.82l-20.45 0z"/>
  <polygon id="8" class="fil1" points="784.01,511.31 747.34,549.25 784.01,592.98 758.9,592.98 733.94,563.07 724.77,572.67 724.77,592.98 705.59,592.98 705.59,487.19 724.77,487.19 724.77,545.02 757.35,511.31 "/>
  <path id="9" class="fil1" d="M874.42 552.07c0,1.6 -0.09,3.13 -0.28,4.59 -0.19,1.45 -0.47,2.98 -0.85,4.58l-65.3 0c1.79,4.51 4.65,8.2 8.6,11.07 3.95,2.87 8.51,4.3 13.68,4.3 3.67,0 7.06,-0.72 10.16,-2.18 3.1,-1.46 5.83,-3.46 8.18,-6l21.72 0c-1.41,4.14 -3.45,7.88 -6.13,11.22 -2.68,3.34 -5.76,6.16 -9.24,8.46 -3.48,2.3 -7.34,4.09 -11.57,5.36 -4.23,1.27 -8.6,1.9 -13.12,1.9 -5.73,0 -11.28,-1.12 -16.64,-3.38 -5.36,-2.26 -10.08,-5.34 -14.17,-9.24 -4.1,-3.9 -7.36,-8.49 -9.81,-13.75 -2.44,-5.27 -3.66,-10.91 -3.66,-16.93 0,-6.2 1.17,-11.94 3.52,-17.21 2.35,-5.26 5.55,-9.82 9.59,-13.68 4.05,-3.85 8.77,-6.86 14.18,-9.02 5.4,-2.17 11.16,-3.25 17.28,-3.25 6.01,0 11.68,1.13 16.99,3.39 5.32,2.25 9.97,5.31 13.97,9.16 3.99,3.86 7.14,8.42 9.45,13.69 2.3,5.26 3.45,10.9 3.45,16.92zm-21.44 -8.18c-1.69,-4.98 -4.56,-8.93 -8.6,-11.85 -4.04,-2.91 -8.65,-4.37 -13.82,-4.37 -5.08,0 -9.64,1.46 -13.68,4.37 -4.05,2.92 -6.92,6.87 -8.61,11.85l44.71 0z"/>
  <path id="10" class="fil1" d="M925.06 592.98l-9.59 0c-3.39,0 -6.56,-0.64 -9.52,-1.91 -2.97,-1.27 -5.55,-2.98 -7.76,-5.15 -2.21,-2.16 -3.97,-4.7 -5.29,-7.61 -1.32,-2.92 -1.98,-6.07 -1.98,-9.45l0 -40.06 -7.33 0 0 -17.49 7.33 0 0 -18.48 19.75 0 0 18.48 11.99 0 0 17.49 -11.99 0 0 40.06c0,1.41 0.47,2.58 1.41,3.52 0.94,0.94 2.07,1.41 3.39,1.41l9.59 0 0 19.19z"/>
  <path id="11" class="fil1" d="M984.16 536.56c0,-1.13 -0.33,-2.35 -0.99,-3.67 -0.66,-1.32 -1.58,-2.52 -2.75,-3.6 -1.18,-1.08 -2.63,-1.97 -4.37,-2.68 -1.74,-0.7 -3.69,-1.05 -5.86,-1.05 -1.78,0 -3.5,0.23 -5.15,0.7 -1.64,0.47 -3.07,1.11 -4.3,1.91 -1.22,0.79 -2.21,1.76 -2.96,2.89 -0.75,1.12 -1.13,2.35 -1.13,3.66 0,1.88 0.64,3.18 1.91,3.88 1.27,0.71 2.94,1.39 5,2.05l17.49 4.51c3.39,0.85 6.61,1.88 9.67,3.1 3.05,1.23 5.71,2.78 7.96,4.66 2.26,1.88 4.05,4.16 5.36,6.84 1.32,2.68 1.98,5.95 1.98,9.8 0,4.23 -0.96,7.95 -2.89,11.14 -1.93,3.2 -4.54,5.91 -7.83,8.11 -3.29,2.21 -7.15,3.86 -11.57,4.94 -4.42,1.08 -9.16,1.62 -14.24,1.62 -4.99,0 -9.64,-0.68 -13.97,-2.04 -4.32,-1.37 -8.08,-3.27 -11.28,-5.71 -3.2,-2.45 -5.71,-5.36 -7.55,-8.75 -1.83,-3.38 -2.75,-7.1 -2.75,-11.14l19.33 0c0,1.31 0.44,2.61 1.34,3.88 0.89,1.27 2.07,2.42 3.52,3.45 1.46,1.04 3.18,1.88 5.15,2.54 1.98,0.66 4.05,0.99 6.21,0.99 4.42,0 8.18,-0.78 11.28,-2.33 3.1,-1.55 4.66,-3.78 4.66,-6.7 0,-1.88 -0.73,-3.24 -2.19,-4.09 -1.46,-0.84 -3.6,-1.6 -6.42,-2.26l-17.35 -4.37c-3.19,-0.84 -6.23,-1.93 -9.09,-3.24 -2.87,-1.32 -5.39,-2.96 -7.55,-4.94 -2.16,-1.97 -3.88,-4.28 -5.15,-6.91 -1.27,-2.63 -1.9,-5.64 -1.9,-9.03 0,-4.23 0.91,-7.94 2.75,-11.14 1.83,-3.2 4.3,-5.88 7.4,-8.04 3.11,-2.16 6.75,-3.81 10.93,-4.94 4.19,-1.12 8.63,-1.69 13.33,-1.69 4.7,0 9.08,0.73 13.12,2.19 4.04,1.46 7.55,3.43 10.51,5.92 2.96,2.49 5.29,5.41 6.98,8.75 1.69,3.34 2.54,6.93 2.54,10.79l-19.18 0z"/>
  <path class="fil2" d="M274.99 466.99l13.49 0 -0.02 -157.72 465.06 80.36 -0.03 77.36 13.49 0 -0.02 -87.81c-5.87,-3.2 -219.05,-38.76 -245.07,-43.34l-183.78 -31.86c-20.04,-3.55 -42.93,-8.62 -63.04,-10.78l-0.08 173.79z"/>
  <polygon class="fil2" points="275,621.47 275.01,786.8 767.05,701.58 766.99,613.55 753.51,612.93 753.49,690.1 288.51,771.01 288.47,612.98 275.02,613.01 "/>
 </g>
</svg>