<svg viewBox="0 0 22 22" fill="none" xmlns="http://www.w3.org/2000/svg">
<path d="M13.7134 10.3465C14.8651 9.50653 15.6152 8.1471 15.6152 6.61563C15.6152 4.0707 13.5447 2.00024 10.9998 2.00024C8.45484 2.00024 6.38439 4.0707 6.38439 6.61563C6.38439 8.1471 7.13438 9.50653 8.28617 10.3465C5.42304 11.4422 3.3844 14.2181 3.3844 17.4618C3.3844 18.8615 4.52315 20.0002 5.92286 20.0002H16.0767C17.4764 20.0002 18.6151 18.8615 18.6151 17.4618C18.6151 14.2181 16.5765 11.4422 13.7134 10.3465ZM7.76902 6.61563C7.76902 4.83419 9.21833 3.38487 10.9998 3.38487C12.7812 3.38487 14.2305 4.83419 14.2305 6.61563C14.2305 8.39707 12.7812 9.84642 10.9998 9.84642C9.21833 9.84642 7.76902 8.39707 7.76902 6.61563ZM16.0767 18.6156H5.92286C5.28663 18.6156 4.76903 18.098 4.76903 17.4618C4.76903 14.0261 7.56409 11.231 10.9998 11.231C14.4355 11.231 17.2306 14.026 17.2306 17.4618C17.2305 18.098 16.7129 18.6156 16.0767 18.6156Z" fill="white"/>
</svg>
