<svg width="457" height="394" viewBox="0 0 457 394" fill="none" xmlns="http://www.w3.org/2000/svg">
<g opacity="0.22">
<path fill-rule="evenodd" clip-rule="evenodd" d="M0 423.689H12.8871L12.8679 276.257L457.142 351.375L457.113 423.689H470L469.981 341.606C464.373 338.615 260.722 305.375 235.865 301.093L60.2988 271.312C41.1545 267.993 19.2876 263.254 0.0764406 261.235L0 423.689Z" fill="white" fill-opacity="0.9"/>
<path fill-rule="evenodd" clip-rule="evenodd" d="M49.6042 423.689H61.1312L61.1141 223.361L458.499 325.43L458.473 423.689H470L469.983 312.157C464.967 308.093 282.809 262.926 260.575 257.109L103.539 216.642C86.4153 212.133 66.8562 205.693 49.6726 202.95L49.6042 423.689Z" fill="white" fill-opacity="0.8"/>
<path fill-rule="evenodd" clip-rule="evenodd" d="M124.01 423.689H133.497L133.483 168.215L460.534 298.381L460.513 423.689H470L469.986 281.455C465.858 276.271 315.94 218.671 297.642 211.253L168.399 159.646C154.306 153.896 138.209 145.683 124.067 142.185L124.01 423.689Z" fill="white" fill-opacity="0.6"/>
<path fill-rule="evenodd" clip-rule="evenodd" d="M202.137 423.689H209.482L209.471 119.821L462.672 274.645L462.655 423.689H470L469.989 254.512C466.793 248.346 350.728 179.836 336.561 171.012L236.503 109.629C225.592 102.79 213.13 93.0217 202.181 88.8602L202.137 423.689Z" fill="white" fill-opacity="0.4"/>
<path fill-rule="evenodd" clip-rule="evenodd" d="M285.224 423.689H290.291L290.283 72.5529L464.945 251.46L464.933 423.689H470L469.992 228.195C467.788 221.071 387.724 141.903 377.952 131.706L308.93 60.7757C301.404 52.8722 292.807 41.5847 285.254 36.7759L285.224 423.689Z" fill="white" fill-opacity="0.2"/>
<path fill-rule="evenodd" clip-rule="evenodd" d="M379.472 423.689H381.954L381.951 39.9152L467.523 235.452L467.518 423.689H470L469.996 210.024C468.916 202.238 429.69 115.711 424.903 104.567L391.086 27.0433C387.399 18.4052 383.187 6.06858 379.487 0.812744L379.472 423.689Z" fill="white" fill-opacity="0.1"/>
</g>
</svg>
